<?xml version="1.0" encoding="utf-8"?>
<!-- Generator: Adobe Illustrator 16.0.0, SVG Export Plug-In . SVG Version: 6.00 Build 0)  -->
<!DOCTYPE svg PUBLIC "-//W3C//DTD SVG 1.1//EN" "http://www.w3.org/Graphics/SVG/1.1/DTD/svg11.dtd">
<svg version="1.1" id="Layer_1" xmlns="http://www.w3.org/2000/svg" xmlns:xlink="http://www.w3.org/1999/xlink" x="0px" y="0px"
	 width="165px" height="50px" viewBox="0 0 165 50" style="enable-background:new 0 0 165 50;" xml:space="preserve">
<style type="text/css">
<![CDATA[
	.st0{opacity:0.8;}
	.st1{fill:#373737;}
]]>
</style>
<g class="st0">
	<path class="st1" d="M35.1,31.1c0.3,0.1,0.4,0.3,0.4,0.7c0,0.3-0.1,0.6-0.4,0.8c-0.3,0.2-0.6,0.3-0.9,0.3c-0.4,0-0.9,0.1-1.6,0.2
		c-0.6,0.2-1.3,0.3-2,0.6c-0.7,0.2-1.3,0.5-2,0.7c-0.6,0.2-1.1,0.5-1.4,0.6c0.5,0.9,0.9,1.8,1.3,2.8c0.3,1,0.5,1.9,0.5,2.9
		c0,0.9-0.2,1.7-0.5,2.5c-0.3,0.8-0.7,1.5-1.3,2c-0.6,0.6-1.3,1-2.1,1.4c-0.8,0.3-1.8,0.5-2.8,0.5c-0.8,0-1.4-0.1-2-0.4
		c-0.6-0.2-1.1-0.6-1.5-1c-0.4-0.4-0.7-0.9-0.9-1.5c-0.2-0.6-0.3-1.2-0.3-1.8c0-0.9,0.2-1.7,0.6-2.5c0.4-0.8,0.9-1.5,1.5-2.2
		c0.6-0.7,1.3-1.3,2.1-1.8c0.8-0.6,1.5-1.1,2.3-1.5c-0.2-0.3-0.4-0.6-0.6-0.9c-0.2-0.3-0.4-0.6-0.6-0.9c-1.5,0.6-3,1.1-4.6,1.5
		c-1.6,0.4-3.2,0.7-4.8,0.7c-1.1,0-2.3-0.1-3.5-0.3c-1.2-0.2-2.4-0.6-3.4-1.1c-1-0.5-1.9-1.2-2.6-2c-0.7-0.8-1-1.8-1-3
		c0-0.7,0.1-1.3,0.4-1.9c0.2-0.6,0.6-1.2,1-1.7c1.1-1.4,2.5-2.6,4.1-3.7s3.3-2,5.2-2.7s3.8-1.3,5.8-1.7s3.9-0.6,5.8-0.6
		c0.5,0,1.2,0,2,0.1c0.8,0.1,1.5,0.2,2.3,0.3c0.7,0.2,1.4,0.5,1.9,0.8c0.5,0.4,0.8,0.9,0.8,1.5c0,0.5-0.2,1-0.5,1.4
		s-0.8,0.8-1.2,1.1c0.9,0.6,1.3,1.4,1.3,2.4c0,0.9-0.2,1.7-0.7,2.4c-0.4,0.7-1,1.4-1.6,2c-0.7,0.6-1.4,1.2-2.2,1.8s-1.5,1.1-2.2,1.6
		c0.2,0.3,0.4,0.6,0.5,0.9c0.2,0.3,0.3,0.6,0.5,0.9c0.5-0.2,1-0.5,1.7-0.7c0.7-0.3,1.4-0.5,2.2-0.8s1.5-0.4,2.2-0.6
		c0.7-0.2,1.3-0.2,1.8-0.2C34.5,31,34.8,31,35.1,31.1z M21.9,30.9c-0.7-1.3-1.1-2.6-1.1-3.9c0-0.7,0.1-1.3,0.3-2
		c0.2-0.7,0.5-1.3,1-1.9c-0.2-0.2-0.3-0.4-0.3-0.7c0-0.3,0.1-0.5,0.4-0.7c0.3-0.2,0.5-0.2,0.9-0.2c0.3,0,0.8-0.1,1.5-0.2
		c0.7-0.1,1.5-0.3,2.2-0.5c0.8-0.2,1.4-0.4,2-0.7c0.6-0.3,0.9-0.6,0.9-1c0-0.2-0.2-0.4-0.6-0.6c-0.4-0.1-0.9-0.3-1.5-0.3
		c-0.6-0.1-1.1-0.1-1.6-0.2c-0.5,0-0.9,0-1.1,0c-1,0-2.1,0.1-3.4,0.3c-1.3,0.2-2.7,0.5-4.1,1s-2.8,0.9-4.2,1.5
		c-1.4,0.6-2.7,1.3-3.8,2c-1.1,0.8-2,1.6-2.7,2.5c-0.7,0.9-1,1.8-1,2.9c0,0.9,0.3,1.6,0.8,2.2c0.5,0.6,1.2,1.1,2,1.5
		c0.8,0.4,1.7,0.6,2.6,0.8c0.9,0.2,1.8,0.2,2.7,0.2c1.4,0,2.8-0.2,4.2-0.5c1.4-0.3,2.7-0.8,3.9-1.4L21.9,30.9z M24.4,44.9
		c0.5-0.2,0.9-0.6,1.2-0.9s0.6-0.8,0.7-1.3c0.2-0.5,0.2-1,0.2-1.5c0-0.9-0.2-1.7-0.5-2.6c-0.3-0.9-0.7-1.7-1.1-2.5
		c-0.6,0.3-1.2,0.7-1.7,1.1c-0.6,0.4-1.1,0.9-1.6,1.5c-0.5,0.5-0.9,1.1-1.2,1.7C20.2,41,20,41.7,20,42.3c0,0.4,0.1,0.7,0.2,1.1
		s0.3,0.7,0.5,1c0.2,0.3,0.5,0.5,0.8,0.7c0.3,0.2,0.8,0.3,1.2,0.3C23.4,45.3,24,45.2,24.4,44.9z M23.5,28.1c0.2,0.6,0.4,1.1,0.7,1.6
		c0.5-0.3,1-0.6,1.6-1s1.1-0.8,1.6-1.3c0.5-0.5,0.9-1,1.3-1.5c0.3-0.5,0.5-1.1,0.5-1.7c0-0.3-0.1-0.7-0.4-1.1
		c-0.3-0.4-0.6-0.6-1-0.6c-0.6,0-1.1,0.1-1.6,0.3s-1,0.5-1.5,0.8s-0.8,0.7-1,1.2s-0.4,0.9-0.4,1.4C23.2,27,23.3,27.5,23.5,28.1z"/>
	<path class="st1" d="M50.3,29c-0.4,0.4-0.9,0.7-1.5,0.9c-0.6,0.2-1.2,0.4-1.8,0.5c-0.6,0.1-1.1,0.1-1.6,0.1c-0.3,0.5-0.7,1-1.2,1.4
		s-1,0.8-1.6,1.1c-0.6,0.3-1.2,0.5-1.9,0.7c-0.7,0.2-1.3,0.3-2,0.3c-0.7,0-1.4-0.1-2-0.4s-1.1-0.6-1.6-1c-0.4-0.4-0.8-0.9-1-1.5
		c-0.2-0.6-0.4-1.1-0.4-1.8c0-0.8,0.2-1.6,0.6-2.3s1-1.3,1.7-1.9c0.7-0.5,1.5-1,2.3-1.2c0.9-0.3,1.8-0.4,2.7-0.4
		c0.4,0,0.8,0,1.4,0.1c0.5,0.1,0.9,0.2,1.2,0.5c0.5,0,0.9,0.1,1.2,0.4c0.3,0.2,0.6,0.5,0.8,0.9c0.2,0.4,0.4,0.8,0.5,1.2
		c0.1,0.4,0.2,0.8,0.2,1.1c0,0.3,0,0.7-0.1,1c0.6,0,1-0.1,1.4-0.3c0.4-0.2,0.7-0.4,1-0.6s0.5-0.4,0.7-0.6c0.2-0.2,0.4-0.3,0.7-0.3
		c0.2,0,0.4,0.1,0.6,0.2c0.2,0.2,0.3,0.3,0.3,0.5C50.9,28.3,50.7,28.7,50.3,29z M41.4,28.4c-0.6-0.6-0.8-1.3-0.8-2.1
		c0-0.2,0-0.3,0-0.5s0.1-0.3,0.1-0.4c-1.3,0.1-2.3,0.4-3.2,1.2c-0.8,0.7-1.3,1.7-1.3,2.8c0,0.7,0.3,1.4,0.8,2
		c0.5,0.6,1.2,0.9,2.2,0.9c0.4,0,0.8-0.1,1.2-0.2s0.8-0.3,1.1-0.6c0.4-0.2,0.7-0.5,1-0.8c0.3-0.3,0.6-0.6,0.8-0.9
		C42.6,29.5,41.9,29,41.4,28.4z M44,27.1c-0.1-0.2-0.2-0.5-0.3-0.7s-0.3-0.4-0.4-0.6c-0.2-0.2-0.3-0.2-0.5-0.2
		c-0.1,0-0.2,0.1-0.3,0.2c0,0.2,0,0.3,0,0.4c0,0.4,0.2,0.8,0.5,1.2c0.3,0.3,0.7,0.6,1.1,0.9c0-0.1,0-0.2,0-0.3c0-0.1,0-0.2,0-0.3
		S44.1,27.3,44,27.1z"/>
	<path class="st1" d="M62.5,28.1c-0.2,0.6-0.5,1.2-0.9,1.8c-0.4,0.6-0.9,1.2-1.4,1.7c-0.6,0.5-1.2,0.9-1.8,1.3
		c-0.7,0.3-1.4,0.5-2.2,0.5c-0.6,0-1.1-0.1-1.5-0.3c-0.4-0.2-0.7-0.5-0.9-0.8c-0.2-0.3-0.4-0.7-0.5-1.1c-0.1-0.4-0.1-0.9-0.1-1.3
		c0-0.4,0-0.7,0-1.1c0-0.3,0.1-0.7,0.1-1.1c-0.4,0.2-0.8,0.4-1.2,0.5c-0.4,0.1-0.9,0.2-1.3,0.1c-0.2,0.3-0.5,0.5-0.8,0.5
		c-0.2,0-0.5-0.1-0.7-0.2c-0.2-0.1-0.3-0.3-0.3-0.6c0-0.1,0-0.3,0.1-0.4c0.1-0.1,0.1-0.3,0.2-0.4c-0.1-0.2-0.2-0.4-0.2-0.7
		c0-0.3,0.1-0.7,0.2-1.2c0.1-0.5,0.3-1,0.6-1.5c0.2-0.5,0.5-0.9,0.8-1.3c0.3-0.4,0.7-0.6,1.1-0.6c0.3,0,0.6,0.1,0.8,0.3
		c0.2,0.2,0.3,0.5,0.3,0.7c0,0.6-0.1,1.2-0.4,1.7c-0.3,0.5-0.6,1.1-0.8,1.6c0.1,0,0.1,0,0.2,0c0,0,0.1,0,0.2,0
		c0.7,0,1.2-0.2,1.5-0.5c0.3-0.3,0.6-0.7,0.8-1c0.2-0.4,0.4-0.7,0.7-1c0.2-0.3,0.6-0.5,1-0.5c0.3,0,0.6,0.1,0.8,0.3s0.3,0.5,0.3,0.7
		c0,0.3-0.1,0.5-0.2,0.7c-0.1,0.2-0.3,0.4-0.5,0.6c-0.1,0.1-0.2,0.3-0.3,0.6c-0.1,0.3-0.2,0.7-0.3,1.1s-0.1,0.8-0.2,1.1
		c0,0.4-0.1,0.6-0.1,0.8c0,0.2,0,0.5,0.1,0.7c0,0.2,0.1,0.5,0.2,0.7c0.1,0.2,0.3,0.4,0.5,0.5c0.2,0.1,0.5,0.2,0.8,0.2
		c0.7,0,1.3-0.2,1.8-0.7s0.8-0.9,1.2-1.4s0.6-1,0.9-1.4c0.3-0.4,0.6-0.7,1-0.7c0.2,0,0.4,0.1,0.6,0.2c0.2,0.2,0.3,0.3,0.3,0.5
		C62.6,28,62.6,28,62.5,28.1z"/>
	<path class="st1" d="M69.5,29c-0.3,0.5-0.6,0.9-1.1,1.4c-0.4,0.5-0.9,0.9-1.3,1.3c-0.5,0.4-0.9,0.7-1.2,0.9
		c-0.8,0.5-1.7,0.8-2.7,0.8c-0.6,0-1-0.1-1.4-0.3c-0.4-0.2-0.7-0.5-0.9-0.8c-0.2-0.3-0.4-0.7-0.4-1.1c-0.1-0.4-0.1-0.8-0.1-1.3
		c0-0.3,0-0.8,0-1.4s0.1-1.3,0.3-2c0.1-0.6,0.3-1.2,0.6-1.7c0.3-0.5,0.6-0.7,1.1-0.7c0.3,0,0.6,0.1,0.8,0.3s0.3,0.4,0.3,0.7
		s0,0.6-0.1,1c-0.1,0.4-0.2,0.8-0.3,1.2c-0.1,0.4-0.2,0.9-0.3,1.3c-0.1,0.4-0.1,0.9-0.1,1.3c0,0.2,0,0.4,0,0.6s0,0.4,0.1,0.6
		c0.1,0.2,0.2,0.3,0.3,0.4s0.4,0.2,0.6,0.2c0.4,0,0.9-0.2,1.3-0.5c0.4-0.3,0.8-0.7,1.2-1.1c0.4-0.4,0.7-0.9,1.1-1.3
		c0.3-0.5,0.6-0.8,0.7-1.1c0.1-0.1,0.3-0.2,0.4-0.4c0.2-0.1,0.3-0.2,0.5-0.2c0.3,0,0.5,0.1,0.7,0.2s0.3,0.3,0.3,0.6
		C69.9,28.1,69.8,28.5,69.5,29z M64.7,21.6c-0.4,0.5-1,0.7-1.7,0.7c-0.4,0-0.7-0.1-1-0.3s-0.4-0.5-0.4-0.8c0-0.3,0-0.6,0.1-0.9
		c0.1-0.3,0.2-0.6,0.4-0.9c0.2-0.3,0.4-0.5,0.7-0.7s0.6-0.3,1-0.3c0.5,0,0.9,0.2,1.1,0.5c0.2,0.3,0.4,0.7,0.4,1.1
		C65.4,20.6,65.2,21.1,64.7,21.6z"/>
	<path class="st1" d="M77.9,29.8c-0.3,0.6-0.8,1.2-1.3,1.8c-0.6,0.5-1.2,1-1.9,1.3c-0.7,0.3-1.4,0.5-2.1,0.5c-1,0-1.8-0.2-2.4-0.7
		s-1.1-1.1-1.4-1.8c-0.3-0.7-0.6-1.5-0.7-2.3s-0.2-1.6-0.2-2.2c0-0.5,0.1-1.1,0.2-2s0.2-1.8,0.4-2.7c0.2-1,0.4-2,0.8-3
		c0.3-1,0.7-1.9,1.1-2.8c0.4-0.8,0.9-1.5,1.5-2c0.6-0.5,1.2-0.8,1.9-0.8c0.4,0,0.8,0.1,1.1,0.3c0.3,0.2,0.6,0.4,0.7,0.7
		c0.2,0.3,0.3,0.6,0.4,0.9c0.1,0.3,0.1,0.7,0.1,1c0,1-0.2,2-0.5,3.1s-0.8,2.1-1.3,3.2c-0.5,1-1.2,2-1.8,3c-0.7,1-1.4,1.8-2,2.6
		c0.1,0.3,0.2,0.6,0.3,1c0.1,0.4,0.3,0.8,0.5,1.2c0.2,0.4,0.5,0.7,0.8,1c0.3,0.3,0.7,0.4,1.1,0.4c0.6,0,1.2-0.2,1.6-0.7
		c0.4-0.4,0.8-0.9,1.1-1.5c0.3-0.5,0.6-1,0.8-1.5c0.3-0.4,0.6-0.7,1-0.7c0.3,0,0.5,0.1,0.7,0.2c0.1,0.2,0.2,0.4,0.2,0.6
		C78.4,28.5,78.2,29.1,77.9,29.8z M73.9,15.7c0-0.2-0.2-0.4-0.3-0.5c-0.1,0-0.2,0.1-0.4,0.2c-0.5,0.4-1,1.1-1.4,1.9
		c-0.4,0.8-0.7,1.7-0.9,2.6s-0.4,1.8-0.5,2.7s-0.2,1.6-0.2,2.2c0.4-0.5,0.8-1.1,1.2-1.8c0.4-0.7,0.8-1.5,1.2-2.2
		c0.4-0.8,0.7-1.5,0.9-2.3c0.2-0.8,0.4-1.5,0.4-2.1C73.9,16.1,73.9,15.9,73.9,15.7z"/>
	<path class="st1" d="M86.5,29.8c-0.3,0.6-0.8,1.2-1.3,1.8s-1.2,1-1.9,1.3s-1.4,0.5-2.1,0.5c-1,0-1.8-0.2-2.4-0.7s-1.1-1.1-1.4-1.8
		c-0.3-0.7-0.6-1.5-0.7-2.3s-0.2-1.6-0.2-2.2c0-0.5,0.1-1.1,0.2-2s0.2-1.8,0.4-2.7c0.2-1,0.4-2,0.8-3c0.3-1,0.7-1.9,1.1-2.8
		c0.4-0.8,0.9-1.5,1.5-2c0.6-0.5,1.2-0.8,1.9-0.8c0.4,0,0.8,0.1,1.1,0.3c0.3,0.2,0.6,0.4,0.7,0.7c0.2,0.3,0.3,0.6,0.4,0.9
		c0.1,0.3,0.1,0.7,0.1,1c0,1-0.2,2-0.5,3.1c-0.4,1.1-0.8,2.1-1.3,3.2c-0.5,1-1.2,2-1.8,3c-0.7,1-1.4,1.8-2,2.6
		c0.1,0.3,0.2,0.6,0.3,1c0.1,0.4,0.3,0.8,0.5,1.2c0.2,0.4,0.5,0.7,0.8,1c0.3,0.3,0.7,0.4,1.1,0.4c0.6,0,1.2-0.2,1.6-0.7
		c0.4-0.4,0.8-0.9,1.1-1.5s0.6-1,0.8-1.5c0.3-0.4,0.6-0.7,1-0.7c0.3,0,0.5,0.1,0.7,0.2S87,27.7,87,28C87,28.5,86.9,29.1,86.5,29.8z
		 M82.5,15.7c0-0.2-0.2-0.4-0.3-0.5c-0.1,0-0.2,0.1-0.4,0.2c-0.5,0.4-1,1.1-1.4,1.9c-0.4,0.8-0.7,1.7-0.9,2.6s-0.4,1.8-0.5,2.7
		s-0.2,1.6-0.2,2.2c0.4-0.5,0.8-1.1,1.2-1.8c0.4-0.7,0.8-1.5,1.2-2.2c0.4-0.8,0.7-1.5,0.9-2.3s0.4-1.5,0.4-2.1
		C82.6,16.1,82.6,15.9,82.5,15.7z"/>
	<path class="st1" d="M101.8,27.8c-0.1,0.6-0.3,1.2-0.6,1.9c-0.3,0.6-0.8,1.2-1.3,1.8c-0.5,0.5-1.1,1-1.8,1.3
		c-0.7,0.3-1.4,0.5-2.2,0.5c-0.7,0-1.3-0.2-1.8-0.5c-0.5-0.3-1-0.8-1.3-1.3c-0.5,0.7-1.1,1.4-2,1.9c-0.8,0.6-1.7,0.9-2.7,0.9
		c-1.1,0-2-0.3-2.7-1c-0.7-0.7-1.1-1.5-1.1-2.4c0-0.7,0.2-1.6,0.7-2.5c0.5-0.9,1.1-1.8,1.8-2.6c0.7-0.8,1.5-1.5,2.5-2
		c0.9-0.5,1.8-0.8,2.8-0.8c0.5,0,1.1,0.1,1.6,0.4c0.6,0.3,0.8,0.7,0.8,1.2c0,0.2-0.1,0.4-0.2,0.6c0.2,0.2,0.3,0.4,0.3,0.7
		c0,0.4,0,0.7-0.1,1.1c-0.1,0.4-0.1,0.7-0.1,1.1c0,0.3,0,0.6,0.1,1c0,0.4,0.1,0.7,0.3,1.1c0.1,0.3,0.3,0.6,0.6,0.9
		c0.2,0.2,0.6,0.4,1,0.4c0.5,0,0.9-0.1,1.3-0.3c0.3-0.2,0.7-0.5,0.9-0.8c0.3-0.3,0.5-0.7,0.7-1.1c0.2-0.4,0.4-0.8,0.6-1.1
		c0.2-0.3,0.4-0.6,0.6-0.8c0.2-0.2,0.4-0.3,0.7-0.3c0.3,0,0.5,0.1,0.7,0.3c0.1,0.2,0.2,0.4,0.2,0.6V27.8z M91.5,25
		c-0.6,0-1.1,0.2-1.7,0.6c-0.6,0.4-1.1,0.9-1.6,1.5S87.3,28.4,87,29c-0.3,0.7-0.5,1.2-0.5,1.6c0,0.5,0.2,0.8,0.5,1.1
		c0.3,0.3,0.7,0.5,1.3,0.5c0.5,0,1-0.1,1.4-0.4c0.4-0.3,0.8-0.6,1.2-1s0.6-0.8,0.8-1.3c0.2-0.5,0.3-0.9,0.3-1.3c0-0.2,0-0.4-0.1-0.6
		c0-0.2-0.1-0.4-0.1-0.6c0-0.3,0-0.6,0.1-0.9c0.1-0.3,0.2-0.6,0.4-0.8C92.1,25,91.8,25,91.5,25z"/>
	<path class="st1" d="M144.3,15c-0.3,0.2-0.6,0.4-0.9,0.4c-0.3,0-0.7-0.1-1.2-0.2c-0.5-0.2-1-0.2-1.6-0.2c-2.2,0-4.3,0.2-6.5,0.7
		c-2.2,0.4-4.3,0.8-6.4,1.2c-0.4,3.1-0.6,6.2-0.6,9.2c0,3,0,6.1,0,9.2c0,0.3-0.1,0.7-0.4,1c-0.2,0.3-0.6,0.5-1,0.5
		c-0.5,0-0.9-0.2-1.2-0.5c-0.3-0.3-0.5-0.7-0.5-1.1c0-0.3,0.1-0.5,0.2-0.7c0.1-0.2,0.2-0.4,0.2-0.7c0.1-0.9,0.1-1.8,0.1-2.8
		c0-0.9,0-1.9,0-2.8c0-1.8,0.1-3.7,0.2-5.5c0.1-1.8,0.2-3.6,0.5-5.5c-1.4,0.2-2.8,0.4-4.2,0.5c-1.4,0.1-2.8,0.2-4.2,0.2
		c-1,0-2.1-0.1-3.2-0.2c-1.1-0.1-2.1-0.3-3-0.7c-0.9-0.4-1.7-0.9-2.3-1.6c-0.6-0.7-0.9-1.6-0.9-2.7c0-0.4,0.1-0.8,0.2-1.4
		c0.1-0.6,0.4-1.1,0.7-1.6c0.3-0.5,0.6-1,1-1.4c0.4-0.4,0.9-0.6,1.3-0.6c0.4,0,0.7,0.2,0.9,0.5c0.2,0.3,0.3,0.6,0.3,1
		c0,0.2,0,0.3-0.1,0.6c0,0.2-0.1,0.4-0.2,0.7s-0.2,0.4-0.4,0.5s-0.4,0.2-0.6,0.2c-0.2,0-0.4-0.1-0.5-0.2c-0.2,0.5-0.3,0.9-0.3,1.3
		c0,0.8,0.3,1.4,0.9,1.9c0.6,0.5,1.3,0.8,2.2,1.1c0.8,0.2,1.7,0.4,2.6,0.5c0.9,0.1,1.7,0.1,2.4,0.1c1.3,0,2.6-0.1,3.9-0.2
		c1.3-0.1,2.6-0.3,3.8-0.5c0-0.3,0.1-0.7,0.1-1.2s0.1-1.1,0.2-1.6c0.1-0.5,0.3-1,0.6-1.4s0.6-0.6,1.1-0.6c0.3,0,0.7,0.1,0.9,0.3
		s0.4,0.5,0.4,0.8c0,0.4-0.1,0.7-0.2,1.1c-0.2,0.3-0.3,0.7-0.3,1c-0.1,0.2-0.1,0.5-0.1,0.7s0,0.5-0.1,0.7c1.1-0.2,2.2-0.4,3.3-0.6
		c1.1-0.2,2.2-0.5,3.3-0.7c1.1-0.2,2.2-0.4,3.3-0.6c1.1-0.2,2.2-0.2,3.4-0.2c0.3,0,0.6,0,0.9,0.1c0.4,0.1,0.7,0.1,1.1,0.2
		c0.3,0.1,0.6,0.3,0.9,0.5c0.2,0.2,0.3,0.4,0.3,0.7C144.7,14.5,144.5,14.8,144.3,15z"/>
	<path class="st1" d="M144.1,28.1c-0.3,0.5-0.7,1.1-1.2,1.6c-0.5,0.5-1.1,1-1.7,1.5c-0.6,0.4-1.3,0.8-2,1c-0.7,0.3-1.4,0.4-2.2,0.4
		c-0.8,0-1.4-0.1-2-0.4c-0.6-0.3-1.1-0.6-1.5-1.1c-0.4-0.4-0.7-0.9-0.9-1.5c-0.2-0.6-0.3-1.2-0.3-1.8c0-0.6,0.1-1.3,0.3-2
		c0.2-0.7,0.6-1.4,1-2c0.4-0.6,1-1.1,1.7-1.5c0.7-0.4,1.4-0.6,2.2-0.6c0.8,0,1.3,0.2,1.8,0.7c0.4,0.4,0.6,1,0.6,1.6
		c0,0.6-0.2,1.1-0.5,1.7c-0.3,0.5-0.7,1-1.2,1.5c-0.5,0.4-1,0.8-1.7,1.1s-1.3,0.4-1.9,0.4c0.1,0.6,0.4,1,0.9,1.4
		c0.4,0.3,1,0.5,1.7,0.5c0.6,0,1.2-0.1,1.7-0.3c0.5-0.2,1-0.5,1.4-0.8s0.8-0.7,1.2-1.1c0.4-0.4,0.7-0.8,1-1.2
		c0.1-0.2,0.3-0.3,0.3-0.3c0.1-0.1,0.2-0.1,0.5-0.1c0.3,0,0.5,0.1,0.7,0.2s0.3,0.4,0.3,0.6C144.2,27.9,144.2,28,144.1,28.1z
		 M137.6,24c-0.1-0.3-0.3-0.4-0.5-0.4c-0.4,0-0.7,0.1-1,0.3c-0.3,0.2-0.6,0.5-0.8,0.8c-0.2,0.3-0.4,0.7-0.5,1
		c-0.1,0.4-0.2,0.7-0.2,0.9c0.2,0.1,0.4,0.1,0.5,0.1c0.3,0,0.6-0.1,0.9-0.2c0.3-0.1,0.6-0.3,0.8-0.5c0.3-0.2,0.5-0.5,0.6-0.7
		c0.2-0.3,0.2-0.5,0.2-0.8C137.7,24.4,137.7,24.2,137.6,24z"/>
	<path class="st1" d="M153.8,28.7c-0.3,0.5-0.7,0.9-1.1,1.4c-0.4,0.4-0.9,0.9-1.3,1.2c-0.5,0.4-0.9,0.6-1.2,0.8
		c-0.4,0.6-1,1.1-1.7,1.5c-0.8,0.4-1.6,0.6-2.3,0.6c-0.3,0-0.7,0-1.1-0.1c-0.4-0.1-0.8-0.2-1.2-0.4s-0.7-0.4-0.9-0.6
		s-0.4-0.5-0.4-0.9c0-0.2,0.1-0.4,0.3-0.6c0.2-0.2,0.4-0.3,0.7-0.3s0.6,0.1,1,0.3c0.4,0.2,0.9,0.3,1.4,0.3c0.4,0,0.9-0.1,1.3-0.2
		c0.4-0.1,0.8-0.3,1.2-0.5c0.1-0.2,0.2-0.5,0.2-0.8s-0.1-0.7-0.4-1s-0.6-0.7-0.9-1s-0.7-0.6-1.1-0.9c-0.4-0.3-0.7-0.5-1-0.7
		c-0.1,0.2-0.2,0.3-0.3,0.6c-0.1,0.2-0.3,0.5-0.4,0.7s-0.3,0.4-0.5,0.6s-0.4,0.2-0.6,0.2c-0.5,0-0.8-0.2-0.8-0.7s0.1-1,0.4-1.4
		c0.3-0.5,0.5-0.9,0.7-1.4c-0.2-0.4-0.3-0.8-0.3-1.3c0-0.3,0.1-0.6,0.2-1c0.1-0.4,0.3-0.8,0.5-1.1c0.2-0.4,0.5-0.7,0.8-0.9
		s0.6-0.4,1-0.4c0.4,0,0.7,0.1,0.9,0.4c0.1,0.2,0.2,0.5,0.2,0.9c0,0.5-0.1,1-0.3,1.5c-0.2,0.5-0.3,1-0.5,1.5
		c0.4,0.3,0.8,0.7,1.3,1.1c0.5,0.4,0.9,0.8,1.4,1.2s0.8,0.8,1.2,1.3c0.3,0.5,0.6,0.9,0.7,1.4c0.4-0.4,0.8-0.8,1.2-1.2
		c0.3-0.4,0.7-0.9,1-1.3c0.2-0.3,0.5-0.5,0.8-0.5c0.3,0,0.5,0.1,0.6,0.2c0.1,0.2,0.2,0.3,0.2,0.5C154.2,27.8,154.1,28.2,153.8,28.7z
		"/>
	<path class="st1" d="M154.5,28c0,0.3,0.1,0.5,0.2,0.9c0.1,0.3,0.3,0.6,0.5,0.9c0.2,0.3,0.4,0.5,0.7,0.7s0.6,0.3,0.9,0.3
		c0.7,0,1.3-0.2,1.8-0.6c0.5-0.4,1-0.8,1.5-1.3c0.4-0.5,0.8-0.9,1.2-1.3c0.4-0.4,0.7-0.6,1-0.6c0.3,0,0.5,0.1,0.7,0.3
		c0.2,0.2,0.2,0.4,0.2,0.7c0,0.2-0.1,0.3-0.2,0.5c-0.3,0.5-0.7,1-1.2,1.5c-0.5,0.5-1,1-1.6,1.5s-1.2,0.8-1.9,1.1
		c-0.7,0.3-1.3,0.4-2,0.4c-1,0-1.7-0.2-2.3-0.7s-1-1.1-1.3-1.8c-0.3-0.7-0.5-1.5-0.6-2.3c-0.1-0.8-0.1-1.5-0.1-2.2
		c0-1.4,0.1-2.9,0.4-4.3c-0.2,0-0.4,0-0.7,0c-0.3,0-0.6,0-0.9-0.1c-0.3-0.1-0.5-0.2-0.7-0.3c-0.2-0.1-0.3-0.3-0.3-0.6
		c0-0.3,0.1-0.5,0.4-0.7c0.2-0.1,0.5-0.2,0.9-0.3c0.3,0,0.7,0,1,0s0.6,0,0.9,0c0.1-0.4,0.3-0.8,0.5-1.4c0.2-0.5,0.5-1.1,0.8-1.6
		c0.3-0.5,0.7-1,1.1-1.3c0.4-0.4,0.9-0.6,1.4-0.6c0.4,0,0.8,0.1,1,0.4c0.2,0.2,0.4,0.5,0.6,0.9c0.1,0.4,0.2,0.7,0.3,1.1
		c0,0.4,0.1,0.7,0.1,1c0,0.5,0,1-0.1,1.5c0.2,0,0.5,0,1,0c0.4,0,0.8,0,1.2,0.1c0.4,0.1,0.7,0.1,1,0.3c0.3,0.1,0.4,0.3,0.4,0.6
		c0,0.2-0.1,0.4-0.3,0.6s-0.4,0.2-0.7,0.2H158c-0.4,1.1-1,2.2-1.6,3.2C155.7,25.8,155.1,26.8,154.5,28L154.5,28z M154.5,21.7
		c-0.1,0.7-0.3,1.3-0.4,2c-0.1,0.7-0.2,1.3-0.2,2c0.7-1.3,1.3-2.6,1.8-4H154.5z M156.3,19.8c0.1-0.6,0.2-1.1,0.2-1.5
		c0-0.2,0-0.4,0-0.6s-0.1-0.4-0.1-0.6c-0.6,0.8-1.1,1.7-1.4,2.7H156.3z"/>
</g>
</svg>
