<?xml version="1.0" encoding="utf-8"?>
<!-- Generator: Adobe Illustrator 16.0.0, SVG Export Plug-In . SVG Version: 6.00 Build 0)  -->
<!DOCTYPE svg PUBLIC "-//W3C//DTD SVG 1.0//EN" "http://www.w3.org/TR/2001/REC-SVG-20010904/DTD/svg10.dtd">
<svg version="1.0" id="Layer_1" xmlns="http://www.w3.org/2000/svg" xmlns:xlink="http://www.w3.org/1999/xlink" x="0px" y="0px"
	 width="165px" height="50px" viewBox="0 0 165 50" enable-background="new 0 0 165 50" xml:space="preserve">
<g opacity="0.8">
	<path fill="#373737" d="M35.1,31.1c0.3,0.102,0.4,0.301,0.4,0.7c0,0.3-0.1,0.601-0.4,0.8c-0.3,0.2-0.6,0.301-0.9,0.301
		c-0.4,0-0.9,0.101-1.6,0.199c-0.6,0.2-1.3,0.301-2,0.602c-0.7,0.199-1.3,0.5-2,0.699C28,34.6,27.5,34.9,27.2,35
		c0.5,0.9,0.9,1.8,1.3,2.8c0.3,1,0.5,1.9,0.5,2.9c0,0.899-0.2,1.7-0.5,2.5s-0.7,1.5-1.3,2c-0.6,0.6-1.3,1-2.1,1.399
		c-0.8,0.301-1.8,0.5-2.8,0.5c-0.8,0-1.4-0.101-2-0.399c-0.6-0.2-1.1-0.601-1.5-1c-0.4-0.4-0.7-0.9-0.9-1.5
		c-0.2-0.601-0.3-1.2-0.3-1.8c0-0.9,0.2-1.7,0.6-2.5c0.4-0.801,0.9-1.5,1.5-2.2c0.6-0.7,1.3-1.3,2.1-1.8
		c0.8-0.602,1.5-1.102,2.3-1.5c-0.2-0.301-0.4-0.602-0.6-0.9s-0.4-0.6-0.6-0.9c-1.5,0.602-3,1.102-4.6,1.5c-1.6,0.4-3.2,0.7-4.8,0.7
		c-1.1,0-2.3-0.1-3.5-0.3s-2.4-0.6-3.4-1.1s-1.9-1.2-2.6-2c-0.7-0.801-1-1.801-1-3c0-0.7,0.1-1.301,0.4-1.9c0.2-0.6,0.6-1.2,1-1.7
		c1.1-1.4,2.5-2.6,4.1-3.7s3.3-2,5.2-2.7c1.9-0.7,3.8-1.3,5.8-1.7c2-0.4,3.9-0.6,5.8-0.6c0.5,0,1.2,0,2,0.1c0.8,0.1,1.5,0.2,2.3,0.3
		c0.7,0.2,1.4,0.5,1.9,0.8c0.5,0.4,0.8,0.9,0.8,1.5c0,0.5-0.2,1-0.5,1.4c-0.3,0.4-0.8,0.8-1.2,1.1c0.9,0.6,1.3,1.4,1.3,2.4
		c0,0.9-0.2,1.7-0.7,2.399c-0.4,0.699-1,1.399-1.6,2c-0.7,0.601-1.4,1.199-2.2,1.801c-0.8,0.6-1.5,1.1-2.2,1.6
		c0.2,0.3,0.4,0.6,0.5,0.9c0.2,0.3,0.3,0.6,0.5,0.898c0.5-0.199,1-0.5,1.7-0.699c0.7-0.301,1.4-0.5,2.2-0.801
		c0.8-0.3,1.5-0.398,2.2-0.6C33,31,33.6,31,34.1,31C34.5,31,34.8,31,35.1,31.1z M21.9,30.9C21.2,29.6,20.8,28.3,20.8,27
		c0-0.7,0.1-1.3,0.3-2c0.2-0.7,0.5-1.3,1-1.9c-0.2-0.2-0.3-0.4-0.3-0.7c0-0.3,0.1-0.5,0.4-0.7c0.3-0.2,0.5-0.2,0.9-0.2
		c0.3,0,0.8-0.1,1.5-0.2c0.7-0.1,1.5-0.3,2.2-0.5c0.8-0.2,1.4-0.4,2-0.7c0.6-0.3,0.9-0.6,0.9-1c0-0.2-0.2-0.4-0.6-0.6
		c-0.4-0.1-0.9-0.3-1.5-0.3C27,18.1,26.5,18.1,26,18c-0.5,0-0.9,0-1.1,0c-1,0-2.1,0.1-3.4,0.3c-1.3,0.2-2.7,0.5-4.1,1
		s-2.8,0.9-4.2,1.5c-1.4,0.6-2.7,1.3-3.8,2c-1.1,0.8-2,1.6-2.7,2.5c-0.7,0.9-1,1.8-1,2.9c0,0.899,0.3,1.6,0.8,2.2
		c0.5,0.6,1.2,1.1,2,1.5c0.8,0.398,1.7,0.6,2.6,0.8s1.8,0.2,2.7,0.2c1.4,0,2.8-0.2,4.2-0.5c1.4-0.301,2.7-0.801,3.9-1.4V30.9z
		 M24.4,44.9c0.5-0.2,0.9-0.602,1.2-0.9c0.3-0.3,0.6-0.8,0.7-1.3c0.2-0.5,0.2-1,0.2-1.5c0-0.9-0.2-1.7-0.5-2.601
		c-0.3-0.899-0.7-1.699-1.1-2.5c-0.6,0.301-1.2,0.699-1.7,1.101c-0.6,0.399-1.1,0.899-1.6,1.5c-0.5,0.5-0.9,1.1-1.2,1.7
		C20.2,41,20,41.7,20,42.3c0,0.4,0.1,0.7,0.2,1.101c0.1,0.399,0.3,0.699,0.5,1c0.2,0.301,0.5,0.5,0.8,0.699
		c0.3,0.2,0.8,0.301,1.2,0.301C23.4,45.3,24,45.2,24.4,44.9z M23.5,28.1c0.2,0.602,0.4,1.102,0.7,1.602c0.5-0.301,1-0.602,1.6-1
		c0.6-0.4,1.1-0.801,1.6-1.301s0.9-1,1.3-1.5c0.3-0.5,0.5-1.101,0.5-1.699c0-0.3-0.1-0.7-0.4-1.1c-0.3-0.4-0.6-0.6-1-0.6
		c-0.6,0-1.1,0.1-1.6,0.3c-0.5,0.2-1,0.5-1.5,0.8c-0.5,0.3-0.8,0.7-1,1.2c-0.2,0.5-0.4,0.9-0.4,1.4C23.2,27,23.3,27.5,23.5,28.1z"/>
	<path fill="#373737" d="M50.3,29c-0.4,0.4-0.9,0.7-1.5,0.9C48.2,30.1,47.6,30.3,47,30.4c-0.6,0.1-1.1,0.1-1.6,0.1
		c-0.3,0.5-0.7,1-1.2,1.4c-0.5,0.398-1,0.8-1.6,1.1s-1.2,0.5-1.9,0.7c-0.7,0.2-1.3,0.3-2,0.3c-0.7,0-1.4-0.1-2-0.4
		c-0.6-0.3-1.1-0.6-1.6-1c-0.4-0.398-0.8-0.898-1-1.5c-0.2-0.6-0.4-1.1-0.4-1.8c0-0.8,0.2-1.6,0.6-2.3c0.4-0.7,1-1.3,1.7-1.9
		c0.7-0.5,1.5-1,2.3-1.2c0.9-0.3,1.8-0.4,2.7-0.4c0.4,0,0.8,0,1.4,0.1c0.5,0.1,0.9,0.2,1.2,0.5c0.5,0,0.9,0.1,1.2,0.4
		c0.3,0.2,0.6,0.5,0.8,0.9c0.2,0.4,0.4,0.8,0.5,1.2c0.1,0.4,0.2,0.801,0.2,1.102c0,0.3,0,0.699-0.1,1c0.6,0,1-0.102,1.4-0.301
		s0.7-0.399,1-0.601c0.3-0.2,0.5-0.399,0.7-0.6c0.2-0.2,0.4-0.3,0.7-0.3c0.2,0,0.4,0.1,0.6,0.199c0.2,0.199,0.3,0.301,0.3,0.5
		C50.9,28.3,50.7,28.7,50.3,29z M41.4,28.4C40.8,27.8,40.6,27.1,40.6,26.3c0-0.2,0-0.3,0-0.5s0.1-0.3,0.1-0.4
		c-1.3,0.1-2.3,0.4-3.2,1.2c-0.8,0.7-1.3,1.7-1.3,2.801c0,0.699,0.3,1.399,0.8,2s1.2,0.899,2.2,0.899c0.4,0,0.8-0.1,1.2-0.2
		c0.4-0.1,0.8-0.3,1.1-0.6c0.4-0.2,0.7-0.5,1-0.8s0.6-0.601,0.8-0.9C42.6,29.5,41.9,29,41.4,28.4z M44,27.1
		c-0.1-0.199-0.2-0.5-0.3-0.699c-0.1-0.199-0.3-0.399-0.4-0.601c-0.2-0.2-0.3-0.2-0.5-0.2c-0.1,0-0.2,0.102-0.3,0.2
		c0,0.2,0,0.3,0,0.4c0,0.399,0.2,0.8,0.5,1.2c0.3,0.3,0.7,0.6,1.1,0.898c0-0.1,0-0.199,0-0.3s0-0.2,0-0.3S44.1,27.3,44,27.1z"/>
	<path fill="#373737" d="M62.5,28.1C62.3,28.7,62,29.3,61.6,29.9c-0.4,0.6-0.9,1.199-1.4,1.699c-0.6,0.5-1.2,0.899-1.8,1.301
		c-0.7,0.3-1.4,0.5-2.2,0.5c-0.6,0-1.1-0.102-1.5-0.301c-0.4-0.199-0.7-0.5-0.9-0.801c-0.2-0.3-0.4-0.699-0.5-1.1
		c-0.1-0.4-0.1-0.9-0.1-1.301c0-0.399,0-0.699,0-1.101c0-0.3,0.1-0.7,0.1-1.1c-0.4,0.2-0.8,0.399-1.2,0.5c-0.4,0.1-0.9,0.2-1.3,0.1
		c-0.2,0.3-0.5,0.5-0.8,0.5c-0.2,0-0.5-0.1-0.7-0.2C49.1,28.5,49,28.3,49,28c0-0.1,0-0.3,0.1-0.4c0.1-0.1,0.1-0.3,0.2-0.398
		c-0.1-0.2-0.2-0.4-0.2-0.7s0.1-0.7,0.2-1.2c0.1-0.5,0.3-1,0.6-1.5c0.2-0.5,0.5-0.9,0.8-1.3c0.3-0.4,0.7-0.6,1.1-0.6
		c0.3,0,0.6,0.1,0.8,0.3c0.2,0.2,0.3,0.5,0.3,0.7c0,0.6-0.1,1.2-0.4,1.7s-0.6,1.1-0.8,1.6c0.1,0,0.1,0,0.2,0c0,0,0.1,0,0.2,0
		c0.7,0,1.2-0.2,1.5-0.5c0.3-0.3,0.6-0.7,0.8-1c0.2-0.4,0.4-0.7,0.7-1c0.2-0.3,0.6-0.5,1-0.5c0.3,0,0.6,0.1,0.8,0.3
		c0.2,0.2,0.3,0.5,0.3,0.7c0,0.3-0.1,0.5-0.2,0.7c-0.1,0.2-0.3,0.4-0.5,0.6c-0.1,0.101-0.2,0.3-0.3,0.601
		C56.1,26.4,56,26.8,55.9,27.2c-0.1,0.399-0.1,0.8-0.2,1.1c0,0.4-0.1,0.601-0.1,0.8c0,0.2,0,0.5,0.1,0.7c0,0.2,0.1,0.5,0.2,0.7
		s0.3,0.4,0.5,0.5c0.2,0.1,0.5,0.2,0.8,0.2c0.7,0,1.3-0.2,1.8-0.7s0.8-0.9,1.2-1.4c0.4-0.5,0.6-1,0.9-1.398c0.3-0.4,0.6-0.7,1-0.7
		c0.2,0,0.4,0.101,0.6,0.2c0.2,0.199,0.3,0.3,0.3,0.5C62.6,28,62.6,28,62.5,28.1z"/>
	<path fill="#373737" d="M69.5,29c-0.3,0.5-0.6,0.9-1.1,1.4c-0.4,0.5-0.9,0.898-1.3,1.3c-0.5,0.399-0.9,0.7-1.2,0.899
		c-0.8,0.5-1.7,0.801-2.7,0.801c-0.6,0-1-0.102-1.4-0.301c-0.4-0.199-0.7-0.5-0.9-0.801c-0.2-0.3-0.4-0.699-0.4-1.1
		c-0.1-0.4-0.1-0.801-0.1-1.301c0-0.301,0-0.801,0-1.399s0.1-1.3,0.3-2c0.1-0.601,0.3-1.2,0.6-1.7c0.3-0.5,0.6-0.7,1.1-0.7
		c0.3,0,0.6,0.1,0.8,0.3c0.2,0.2,0.3,0.4,0.3,0.7c0,0.3,0,0.6-0.1,1c-0.1,0.399-0.2,0.801-0.3,1.199c-0.1,0.4-0.2,0.9-0.3,1.301
		c-0.1,0.399-0.1,0.899-0.1,1.301c0,0.199,0,0.398,0,0.6s0,0.4,0.1,0.6c0.1,0.2,0.2,0.301,0.3,0.4s0.4,0.2,0.6,0.2
		c0.4,0,0.9-0.2,1.3-0.5s0.8-0.7,1.2-1.101c0.4-0.399,0.7-0.899,1.1-1.301c0.3-0.5,0.6-0.8,0.7-1.1c0.1-0.102,0.3-0.2,0.4-0.4
		c0.2-0.1,0.3-0.199,0.5-0.199c0.3,0,0.5,0.101,0.7,0.199c0.2,0.102,0.3,0.301,0.3,0.602C69.9,28.1,69.8,28.5,69.5,29z M64.7,21.6
		c-0.4,0.5-1,0.7-1.7,0.7c-0.4,0-0.7-0.1-1-0.3s-0.4-0.5-0.4-0.8c0-0.3,0-0.6,0.1-0.9c0.1-0.3,0.2-0.6,0.4-0.9
		c0.2-0.3,0.4-0.5,0.7-0.7c0.3-0.2,0.6-0.3,1-0.3c0.5,0,0.9,0.2,1.1,0.5c0.2,0.3,0.4,0.7,0.4,1.1C65.4,20.6,65.2,21.1,64.7,21.6z"/>
	<path fill="#373737" d="M77.9,29.8c-0.3,0.601-0.8,1.2-1.3,1.8c-0.6,0.5-1.2,1-1.9,1.301c-0.7,0.301-1.4,0.5-2.1,0.5
		c-1,0-1.8-0.199-2.4-0.699c-0.6-0.5-1.1-1.102-1.4-1.801c-0.3-0.699-0.6-1.5-0.7-2.301C68,27.8,67.9,27,67.9,26.4
		c0-0.5,0.1-1.102,0.2-2s0.2-1.8,0.4-2.7c0.2-1,0.4-2,0.8-3c0.3-1,0.7-1.9,1.1-2.8c0.4-0.8,0.9-1.5,1.5-2s1.2-0.8,1.9-0.8
		c0.4,0,0.8,0.1,1.1,0.3c0.3,0.2,0.6,0.4,0.7,0.7c0.2,0.3,0.3,0.6,0.4,0.9s0.1,0.7,0.1,1c0,1-0.2,2-0.5,3.1
		c-0.3,1.1-0.8,2.1-1.3,3.2c-0.5,1-1.2,2-1.8,3c-0.7,1-1.4,1.8-2,2.601c0.1,0.301,0.2,0.601,0.3,1c0.1,0.399,0.3,0.801,0.5,1.199
		c0.2,0.4,0.5,0.7,0.8,1c0.3,0.301,0.7,0.4,1.1,0.4c0.6,0,1.2-0.2,1.6-0.7c0.4-0.399,0.8-0.899,1.1-1.5c0.3-0.5,0.6-1,0.8-1.5
		c0.3-0.399,0.6-0.7,1-0.7c0.3,0,0.5,0.102,0.7,0.2c0.1,0.2,0.2,0.4,0.2,0.601C78.4,28.5,78.2,29.1,77.9,29.8z M73.9,15.7
		c0-0.2-0.2-0.4-0.3-0.5c-0.1,0-0.2,0.1-0.4,0.2c-0.5,0.4-1,1.1-1.4,1.9c-0.4,0.8-0.7,1.7-0.9,2.6c-0.2,0.9-0.4,1.8-0.5,2.7
		s-0.2,1.6-0.2,2.2c0.4-0.5,0.8-1.1,1.2-1.8s0.8-1.5,1.2-2.2c0.4-0.8,0.7-1.5,0.9-2.3s0.4-1.5,0.4-2.1
		C73.9,16.1,73.9,15.9,73.9,15.7z"/>
	<path fill="#373737" d="M86.5,29.8c-0.3,0.601-0.8,1.2-1.3,1.8c-0.5,0.602-1.2,1-1.9,1.301c-0.7,0.301-1.4,0.5-2.1,0.5
		c-1,0-1.8-0.199-2.4-0.699c-0.6-0.5-1.1-1.102-1.4-1.801c-0.3-0.699-0.6-1.5-0.7-2.301c-0.1-0.8-0.2-1.6-0.2-2.199
		c0-0.5,0.1-1.101,0.2-2c0.1-0.9,0.2-1.8,0.4-2.7c0.2-1,0.4-2,0.8-3c0.3-1,0.7-1.9,1.1-2.8c0.4-0.8,0.9-1.5,1.5-2s1.2-0.8,1.9-0.8
		c0.4,0,0.8,0.1,1.1,0.3c0.3,0.2,0.6,0.4,0.7,0.7c0.2,0.3,0.3,0.6,0.399,0.9c0.101,0.3,0.101,0.7,0.101,1c0,1-0.2,2-0.5,3.1
		c-0.4,1.1-0.8,2.1-1.3,3.2c-0.5,1-1.2,2-1.8,3c-0.7,1-1.4,1.801-2,2.602c0.1,0.3,0.2,0.6,0.3,1c0.1,0.398,0.3,0.8,0.5,1.199
		c0.2,0.399,0.5,0.699,0.8,1c0.3,0.301,0.7,0.399,1.1,0.399c0.6,0,1.2-0.2,1.601-0.7c0.399-0.398,0.801-0.898,1.101-1.5
		c0.3-0.6,0.601-1,0.8-1.5c0.301-0.398,0.602-0.699,1-0.699c0.301,0,0.5,0.101,0.7,0.199c0.2,0.102,0,0.4,0,0.7
		C87,28.5,86.9,29.1,86.5,29.8z M82.5,15.7c0-0.2-0.2-0.4-0.3-0.5c-0.1,0-0.2,0.1-0.4,0.2c-0.5,0.4-1,1.1-1.4,1.9
		c-0.4,0.8-0.7,1.7-0.9,2.6s-0.4,1.8-0.5,2.7s-0.2,1.6-0.2,2.2c0.4-0.5,0.8-1.1,1.2-1.8s0.8-1.5,1.2-2.2c0.4-0.8,0.7-1.5,0.9-2.3
		c0.2-0.8,0.4-1.5,0.4-2.1C82.6,16.1,82.6,15.9,82.5,15.7z"/>
	<path fill="#373737" d="M101.8,27.8c-0.1,0.601-0.3,1.2-0.6,1.9c-0.3,0.6-0.8,1.2-1.3,1.8c-0.5,0.5-1.102,1-1.801,1.3
		S96.7,33.3,95.9,33.3c-0.7,0-1.301-0.2-1.801-0.5s-1-0.8-1.301-1.3c-0.5,0.7-1.1,1.4-2,1.9C90,34,89.1,34.3,88.1,34.3
		c-1.1,0-2-0.3-2.699-1C84.7,32.6,84.3,31.8,84.3,30.9c0-0.7,0.2-1.602,0.7-2.5c0.5-0.9,1.1-1.801,1.8-2.602c0.7-0.8,1.5-1.5,2.5-2
		c0.9-0.5,1.8-0.8,2.8-0.8c0.5,0,1.102,0.1,1.602,0.4c0.6,0.3,0.8,0.7,0.8,1.2c0,0.2-0.101,0.4-0.2,0.6
		c0.2,0.2,0.301,0.398,0.301,0.699c0,0.399,0,0.699-0.101,1.101S94.4,27.699,94.4,28.1c0,0.301,0,0.601,0.101,1
		c0,0.399,0.101,0.699,0.3,1.101c0.102,0.3,0.301,0.6,0.602,0.899c0.199,0.199,0.6,0.399,1,0.399c0.5,0,0.898-0.101,1.3-0.3
		c0.3-0.2,0.7-0.5,0.899-0.801c0.301-0.301,0.5-0.699,0.699-1.101c0.2-0.399,0.4-0.8,0.602-1.1c0.199-0.3,0.398-0.601,0.6-0.8
		c0.2-0.2,0.4-0.301,0.7-0.301s0.5,0.101,0.7,0.301C102,27.6,102.1,27.8,102.1,28v-0.2H101.8z M91.5,25c-0.6,0-1.1,0.2-1.7,0.6
		c-0.6,0.4-1.1,0.9-1.6,1.5C87.7,27.7,87.3,28.4,87,29c-0.3,0.7-0.5,1.2-0.5,1.6c0,0.5,0.2,0.801,0.5,1.102c0.3,0.3,0.7,0.5,1.3,0.5
		c0.5,0,1-0.102,1.4-0.4c0.399-0.3,0.8-0.6,1.2-1c0.398-0.398,0.6-0.8,0.8-1.3s0.3-0.899,0.3-1.3c0-0.2,0-0.4-0.1-0.602
		C91.9,27.4,91.8,27.2,91.8,27c0-0.3,0-0.6,0.101-0.9c0.101-0.3,0.199-0.6,0.399-0.8C92.1,25,91.8,25,91.5,25z"/>
	<path fill="#373737" d="M144.3,15c-0.3,0.2-0.6,0.4-0.899,0.4c-0.301,0-0.699-0.1-1.199-0.2c-0.5-0.2-1-0.2-1.602-0.2
		c-2.199,0-4.3,0.2-6.5,0.7c-2.199,0.4-4.3,0.8-6.398,1.2c-0.4,3.1-0.602,6.2-0.602,9.2c0,3,0,6.102,0,9.2c0,0.3-0.1,0.7-0.398,1
		c-0.2,0.3-0.602,0.5-1,0.5c-0.5,0-0.9-0.2-1.2-0.5s-0.5-0.7-0.5-1.1c0-0.3,0.101-0.5,0.2-0.7s0.199-0.4,0.199-0.7
		c0.101-0.899,0.101-1.8,0.101-2.8c0-0.9,0-1.9,0-2.8c0-1.8,0.101-3.7,0.2-5.5c0.1-1.8,0.199-3.6,0.5-5.5
		c-1.4,0.2-2.801,0.4-4.2,0.5c-1.399,0.1-2.8,0.2-4.2,0.2c-1,0-2.1-0.1-3.199-0.2c-1.101-0.1-2.101-0.3-3-0.7s-1.699-0.9-2.301-1.6
		c-0.6-0.7-0.898-1.6-0.898-2.7c0-0.4,0.1-0.8,0.199-1.4c0.101-0.6,0.399-1.1,0.699-1.6c0.301-0.5,0.602-1,1-1.4
		c0.4-0.4,0.9-0.6,1.301-0.6c0.399,0,0.699,0.2,0.899,0.5c0.2,0.3,0.3,0.6,0.3,1c0,0.2,0,0.3-0.1,0.6c0,0.2-0.102,0.4-0.2,0.7
		s-0.2,0.4-0.399,0.5s-0.399,0.2-0.601,0.2s-0.399-0.1-0.5-0.2c-0.2,0.5-0.3,0.9-0.3,1.3c0,0.8,0.3,1.4,0.898,1.9
		c0.602,0.5,1.301,0.8,2.2,1.1c0.8,0.2,1.7,0.4,2.601,0.5c0.899,0.1,1.699,0.1,2.399,0.1c1.3,0,2.601-0.1,3.9-0.2
		c1.3-0.1,2.6-0.3,3.8-0.5c0-0.3,0.1-0.7,0.1-1.2s0.102-1.1,0.2-1.6c0.101-0.5,0.3-1,0.601-1.4s0.601-0.6,1.101-0.6
		c0.3,0,0.7,0.1,0.899,0.3c0.199,0.2,0.399,0.5,0.399,0.8c0,0.4-0.1,0.7-0.2,1.1c-0.199,0.3-0.3,0.7-0.3,1c-0.1,0.2-0.1,0.5-0.1,0.7
		c0,0.2,0,0.5-0.101,0.7c1.101-0.2,2.199-0.4,3.301-0.6c1.1-0.2,2.199-0.5,3.3-0.7c1.1-0.2,2.2-0.4,3.3-0.6c1.1-0.2,2.2-0.2,3.4-0.2
		c0.3,0,0.6,0,0.898,0.1c0.4,0.1,0.7,0.1,1.102,0.2c0.3,0.1,0.6,0.3,0.898,0.5c0.2,0.2,0.301,0.4,0.301,0.7
		C144.7,14.5,144.5,14.8,144.3,15z"/>
	<path fill="#373737" d="M144.1,28.1c-0.3,0.5-0.699,1.102-1.199,1.602s-1.101,1-1.699,1.5c-0.602,0.398-1.301,0.8-2,1
		c-0.7,0.3-1.4,0.398-2.2,0.398s-1.399-0.1-2-0.398s-1.101-0.602-1.5-1.102c-0.399-0.398-0.7-0.898-0.899-1.5
		c-0.199-0.6-0.301-1.199-0.301-1.8c0-0.6,0.102-1.3,0.301-2c0.199-0.7,0.601-1.4,1-2c0.399-0.6,1-1.1,1.699-1.5
		c0.7-0.4,1.4-0.6,2.2-0.6s1.3,0.2,1.8,0.7c0.4,0.4,0.602,1,0.602,1.6s-0.2,1.1-0.5,1.7c-0.301,0.5-0.7,1-1.2,1.5
		c-0.5,0.399-1,0.8-1.7,1.1c-0.699,0.3-1.3,0.4-1.9,0.4c0.102,0.6,0.4,1,0.9,1.399c0.4,0.301,1,0.5,1.7,0.5
		c0.601,0,1.2-0.101,1.7-0.301c0.5-0.199,1-0.5,1.398-0.8c0.4-0.3,0.801-0.7,1.2-1.101c0.399-0.399,0.7-0.801,1-1.199
		c0.101-0.2,0.3-0.301,0.3-0.301C142.9,26.8,143,26.8,143.3,26.8s0.5,0.101,0.7,0.2s0.3,0.4,0.3,0.6C144.2,27.9,144.2,28,144.1,28.1
		z M137.6,24c-0.1-0.3-0.3-0.4-0.5-0.4c-0.398,0-0.699,0.1-1,0.3c-0.3,0.2-0.6,0.5-0.8,0.8c-0.2,0.3-0.399,0.7-0.5,1
		c-0.1,0.399-0.2,0.7-0.2,0.899c0.2,0.101,0.4,0.101,0.5,0.101c0.301,0,0.602-0.101,0.9-0.2s0.6-0.3,0.8-0.5
		c0.3-0.2,0.5-0.5,0.601-0.7c0.199-0.3,0.199-0.5,0.199-0.8C137.7,24.4,137.7,24.2,137.6,24z"/>
	<path fill="#373737" d="M153.8,28.7c-0.3,0.5-0.7,0.899-1.1,1.399c-0.4,0.399-0.9,0.899-1.3,1.199c-0.5,0.4-0.9,0.602-1.2,0.801
		c-0.4,0.601-1,1.101-1.7,1.5c-0.8,0.399-1.6,0.601-2.3,0.601c-0.3,0-0.7,0-1.101-0.101C144.7,34,144.3,33.9,143.9,33.7
		c-0.4-0.2-0.7-0.4-0.9-0.601c-0.2-0.199-0.4-0.5-0.4-0.899c0-0.2,0.102-0.4,0.301-0.601c0.199-0.199,0.399-0.301,0.699-0.301
		c0.301,0,0.602,0.102,1,0.301c0.4,0.199,0.9,0.301,1.4,0.301c0.4,0,0.9-0.102,1.3-0.2c0.4-0.101,0.8-0.3,1.2-0.5
		c0.1-0.2,0.2-0.5,0.2-0.8c0-0.301-0.101-0.7-0.4-1c-0.3-0.301-0.6-0.7-0.899-1c-0.301-0.301-0.699-0.602-1.101-0.9
		c-0.399-0.3-0.7-0.5-1-0.7c-0.1,0.2-0.2,0.3-0.3,0.601c-0.1,0.199-0.3,0.5-0.4,0.699c-0.1,0.2-0.3,0.4-0.5,0.602
		c-0.199,0.199-0.398,0.199-0.6,0.199c-0.5,0-0.8-0.199-0.8-0.699s0.1-1,0.399-1.4c0.301-0.5,0.5-0.898,0.699-1.4
		c-0.199-0.4-0.3-0.8-0.3-1.3c0-0.3,0.101-0.6,0.2-1s0.3-0.8,0.5-1.1c0.199-0.4,0.5-0.7,0.8-0.9c0.3-0.2,0.601-0.4,1-0.4
		s0.7,0.1,0.899,0.4c0.101,0.2,0.199,0.5,0.199,0.9c0,0.5-0.1,1-0.3,1.5s-0.3,1-0.5,1.5c0.399,0.3,0.8,0.7,1.3,1.101
		c0.5,0.399,0.9,0.801,1.4,1.199c0.5,0.4,0.8,0.801,1.199,1.301c0.301,0.5,0.601,0.899,0.701,1.399c0.398-0.399,0.799-0.8,1.199-1.2
		c0.301-0.398,0.699-0.898,1-1.3c0.199-0.3,0.5-0.5,0.801-0.5c0.299,0,0.5,0.101,0.6,0.2c0.1,0.199,0.199,0.3,0.199,0.5
		C154.2,27.8,154.1,28.2,153.8,28.7z"/>
	<path fill="#373737" d="M154.5,28c0,0.3,0.1,0.5,0.2,0.9c0.1,0.3,0.3,0.6,0.5,0.898s0.399,0.5,0.7,0.7c0.3,0.2,0.6,0.3,0.898,0.3
		c0.7,0,1.301-0.199,1.801-0.6s1-0.801,1.5-1.301c0.399-0.5,0.801-0.899,1.199-1.301c0.4-0.398,0.7-0.6,1-0.6
		c0.301,0,0.5,0.1,0.7,0.3s0.2,0.4,0.2,0.7c0,0.2-0.102,0.3-0.2,0.5c-0.3,0.5-0.7,1-1.2,1.5s-1,1-1.6,1.5
		c-0.602,0.5-1.2,0.8-1.9,1.1c-0.699,0.301-1.3,0.4-2,0.4c-1,0-1.699-0.2-2.3-0.7s-1-1.1-1.3-1.8c-0.301-0.7-0.5-1.5-0.602-2.3
		c-0.1-0.8-0.1-1.5-0.1-2.2c0-1.4,0.1-2.9,0.4-4.3c-0.201,0-0.4,0-0.701,0c-0.299,0-0.6,0-0.899-0.1c-0.299-0.1-0.5-0.2-0.7-0.3
		c-0.199-0.1-0.3-0.3-0.3-0.6c0-0.3,0.101-0.5,0.399-0.7c0.201-0.1,0.5-0.2,0.9-0.3c0.301,0,0.699,0,1,0s0.6,0,0.899,0
		c0.101-0.4,0.3-0.8,0.5-1.4c0.2-0.5,0.5-1.1,0.8-1.6c0.301-0.5,0.7-1,1.102-1.3c0.398-0.4,0.898-0.6,1.398-0.6
		c0.4,0,0.801,0.1,1,0.4c0.2,0.2,0.4,0.5,0.602,0.9c0.1,0.4,0.199,0.7,0.299,1.1c0,0.4,0.101,0.7,0.101,1c0,0.5,0,1-0.101,1.5
		c0.201,0,0.5,0,1,0c0.4,0,0.801,0,1.201,0.1c0.398,0.1,0.699,0.1,1,0.3c0.299,0.1,0.398,0.3,0.398,0.6c0,0.2-0.1,0.4-0.3,0.6
		c-0.2,0.2-0.399,0.2-0.7,0.2H158c-0.4,1.1-1,2.2-1.6,3.2C155.7,25.8,155.1,26.8,154.5,28L154.5,28z M154.5,21.7
		c-0.1,0.7-0.3,1.3-0.4,2c-0.1,0.7-0.199,1.3-0.199,2c0.699-1.3,1.301-2.6,1.801-4H154.5z M156.3,19.8c0.101-0.6,0.2-1.1,0.2-1.5
		c0-0.2,0-0.4,0-0.6c0-0.2-0.1-0.4-0.1-0.6c-0.602,0.8-1.102,1.7-1.4,2.7H156.3z"/>
</g>
</svg>
